<svg width="33" height="23" viewBox="0 0 33 23" fill="none" xmlns="http://www.w3.org/2000/svg">
<path d="M1.5 9.54593C0.671573 9.54593 -7.24234e-08 10.2175 0 11.0459C7.24234e-08 11.8744 0.671573 12.5459 1.5 12.5459L1.5 11.0459L1.5 9.54593ZM32.5607 12.1066C33.1464 11.5208 33.1464 10.5711 32.5607 9.98527L23.0147 0.439325C22.4289 -0.146461 21.4792 -0.146461 20.8934 0.439326C20.3076 1.02511 20.3076 1.97486 20.8934 2.56065L29.3787 11.0459L20.8934 19.5312C20.3076 20.117 20.3076 21.0667 20.8934 21.6525C21.4792 22.2383 22.4289 22.2383 23.0147 21.6525L32.5607 12.1066ZM1.5 11.0459L1.5 12.5459L31.5 12.5459L31.5 11.0459L31.5 9.54593L1.5 9.54593L1.5 11.0459Z" fill="#A09AAE"/>
</svg>
